<svg width="800.0000000000001" height="800.0000000000001" xmlns="http://www.w3.org/2000/svg" stroke="null">
 <g stroke="null">
  <title stroke="null">Layer 1</title>
  <g stroke="null">
   <path stroke="null" stroke-width="0.06479" d="m711.83372,93.14118l0,-55.95676l40.61306,-31.70599l-439.50136,0l-265.39217,230.69977l176.00608,0c-0.31919,4.36633 -0.45029,8.31462 -0.45029,12.79242c0,42.83173 14.83401,78.26038 44.53168,106.56375c29.69769,28.35011 66.26984,42.42718 109.5753,42.42718c10.11617,0 20.03551,-0.75604 29.66806,-2.10451c-5.97376,13.35788 -8.98887,25.7323 -8.98887,37.27875c0,20.29168 9.24504,41.98038 27.6723,65.01756c-80.61754,5.48734 -139.85198,19.99863 -177.61077,43.48618c-21.63926,13.35429 -39.04163,30.21369 -52.17209,50.4065c-13.13134,20.34114 -19.68036,42.15473 -19.68036,65.67469c0,19.82516 4.23776,37.67704 12.77894,53.55287c8.54117,15.876 19.68036,28.912 33.51835,39.00848c13.80466,10.20785 29.73088,18.70049 47.7104,25.62076c17.94722,6.8708 35.76673,11.75054 53.55026,14.51219c17.7269,2.75799 35.35223,4.10652 52.82025,4.10652c27.67583,0 55.38411,-3.5636 83.31619,-10.65839c27.86648,-7.16018 54.00059,-17.75641 78.43387,-31.8344c24.36859,-13.98267 44.20994,-33.05454 59.42871,-56.95556c15.18546,-24.00002 22.79712,-50.96929 22.79712,-80.82787c0,-22.63535 -4.62256,-43.22995 -13.87031,-61.93317c-9.18216,-18.64118 -20.42029,-33.98848 -33.80703,-45.91251c-13.35784,-11.94379 -26.71213,-22.92209 -40.09966,-32.81084c-13.3579,-9.95526 -24.65803,-20.03549 -33.84017,-30.43754c-9.21537,-10.36969 -13.83793,-20.65935 -13.83793,-30.78902c0,-10.11259 3.56347,-19.87367 10.71759,-29.31293c7.09833,-9.4716 15.76804,-18.59173 25.91035,-27.34057c10.1457,-8.73175 20.29162,-18.4272 30.40415,-29.04053c10.11264,-10.57644 18.78235,-24.30292 25.91043,-41.11289c7.1603,-16.80635 10.69149,-35.84576 10.69149,-57.03465c0,-27.64261 -5.23386,-50.26174 -15.50829,-68.45253c-1.21991,-2.10089 -2.50186,-3.70558 -3.85298,-6.21012l116.93342,-95.9019l0,35.17515c-15.19263,1.91033 -13.61145,10.98459 -13.61145,21.85321l0,264.38532c0,12.24315 10.01735,22.26133 22.26141,22.26133l8.19596,0c12.24322,0 22.26141,-10.01727 22.26141,-22.26133l0,-264.38532c0,-10.84254 1.59742,-19.90692 -13.48292,-21.84332l-0.00016,0zm-220.60337,457.14921c2.34451,1.54172 7.61077,5.71388 15.85977,12.40766c8.32091,6.66411 13.96647,11.70377 16.9843,15.23494c2.95585,3.4188 7.35454,8.55826 13.10175,15.50827c5.77949,6.93372 9.69537,12.95333 11.75043,17.94714c2.05513,5.08912 4.14254,11.22104 6.25966,18.38133c2.02535,7.07854 3.05109,14.33418 3.05109,21.70216c0,35.03049 -13.48643,60.9866 -40.38923,77.79297c-26.96925,16.80997 -59.10942,25.21996 -96.44751,25.21996c-18.87763,0 -37.40373,-2.24567 -55.60796,-6.56529c-18.17105,-4.34929 -35.57253,-10.96482 -52.17209,-19.72988c-16.59962,-8.74874 -29.95393,-20.96588 -40.07008,-36.56843c-10.14586,-15.69892 -15.21877,-33.7288 -15.21877,-53.93771c0,-21.20599 5.74711,-39.63682 17.3062,-55.2862c11.49338,-15.66916 26.58447,-27.51767 45.27151,-35.57968c18.62142,-8.10787 37.49899,-13.85412 56.63369,-17.25676c19.13473,-3.49789 38.62364,-5.25001 58.43526,-5.25001c9.18212,0 16.30652,0.51606 21.37947,1.43028c0.93403,0.45037 6.22991,4.25395 15.89297,11.43139c9.6658,7.11448 15.66918,11.497 17.98046,13.11786l-0.00095,0zm-6.90049,-206.66745c-15.21883,18.20425 -36.44093,27.30459 -63.60351,27.30459c-24.36855,0 -45.81723,-9.79075 -64.24443,-29.40819c-18.49287,-19.56804 -31.68984,-41.77003 -39.74821,-66.63841c-8.09082,-24.88097 -12.13534,-49.28279 -12.13534,-73.2495c0,-28.13884 7.38787,-52.09296 22.15259,-71.86864c14.7684,-19.82783 35.95725,-29.7633 63.57111,-29.7633c24.40089,0 45.97456,10.3526 64.59682,31.14413c18.68705,20.72229 32.07462,43.99949 40.10332,69.79742c8.05843,25.76555 12.06876,50.40381 12.06876,73.9399c0,27.63003 -7.60802,50.56829 -22.76026,68.74201l-0.00086,0z"/>
  </g>
 </g>

</svg>