<svg width="800.0000000000001" height="800.0000000000001" xmlns="http://www.w3.org/2000/svg" stroke="null">
 <g stroke="null">
  <title stroke="null">Layer 1</title>
  <g stroke="null">
   <g stroke="null">
    <title stroke="null">Layer 1</title>
    <g stroke="null">
     <path stroke="null" d="m373.33284,-242.1651c-374.2904,0 -678.83235,304.54195 -678.83235,678.83235c0,374.2904 304.54195,678.83235 678.83235,678.83235c374.2904,0 678.83235,-304.54195 678.83235,-678.83235c0,-374.2904 -304.54195,-678.83235 -678.83235,-678.83235zm0,104.43574c317.84915,0 574.3966,256.54745 574.3966,574.3966c0,317.84915 -256.54745,574.3966 -574.3966,574.3966c-317.84915,0 -574.3966,-256.54745 -574.3966,-574.3966c0,-317.84915 256.54745,-574.3966 574.3966,-574.3966zm-261.08936,156.65362a52.21787,52.21787 0 0 0 0,104.43574a52.21787,52.21787 0 0 0 0,-104.43574zm-52.21787,156.65362l0,574.3966l104.43574,0l0,-574.3966l-104.43574,0zm208.87149,0l0,52.21787l0,522.17873l234.98043,0c157.98935,0 287.1983,-129.20895 287.1983,-287.1983c0,-157.98935 -129.20895,-287.1983 -287.1983,-287.1983l-234.98043,0zm104.43574,104.43574l130.54469,0c101.53348,0 182.76256,81.22908 182.76256,182.76256c0,101.53348 -81.22908,182.76256 -182.76256,182.76256l-130.54469,0l0,-365.52511z"/>
    </g>
    <rect stroke="#000" fill="#ffffff" x="707.1792" y="-85.99306" width="311.75303" height="280.9626" id="svg_3" stroke-width="0"/>
   </g>
  </g>
 </g>

</svg>