<svg width="800" height="800" xmlns="http://www.w3.org/2000/svg" stroke="null">
 <g stroke="null">
  <title stroke="null">Layer 1</title>
  <g stroke="null" id="svg_1">
   <path stroke="null" id="svg_2" d="m647.40292,8.645c-26.67776,0 -49.181,6.19655 -67.60756,18.42656c-18.36134,12.29525 -31.63499,30.52614 -39.56005,54.7905a104.13457,104.13457 0 0 0 -3.6527,14.25205a272.81103,272.81103 0 0 0 -2.54384,17.2851a293.52054,293.52054 0 0 0 -1.63067,23.70993c-0.32613,9.19698 -0.42397,20.25292 -0.42397,33.13521a1014.9614,1015.02663 0 0 0 0.45659,33.16782a293.52054,293.52054 0 0 0 1.63067,23.70993a259.14602,259.14602 0 0 0 2.51123,17.2851l-0.16307,0a108.73305,108.73305 0 0 0 3.68532,14.28467c7.99028,24.23175 21.1987,42.49525 39.59266,54.7905c18.42656,12.26264 40.96242,18.39396 67.67279,18.39396c26.09072,0 50.09417,-6.94665 68.65119,-19.66588c18.58964,-12.71922 30.65659,-29.87387 38.32073,-53.8121c2.47862,-7.66415 4.40281,-18.19827 5.77257,-30.33046a355.48598,355.48598 0 0 0 1.40237,-39.36437l0,-26.74298c0,-3.09827 -1.53283,-4.6311 -4.56588,-4.6311l-99.92744,0c-3.06566,0 -4.56588,1.53283 -4.56588,4.59848l0,31.17841c0,3.06566 1.50021,4.56588 4.56588,4.56588l54.33391,0c1.82635,0 2.73952,0.9784 2.73952,2.80476c0,11.74082 0,20.2203 -1.17408,28.21059c-1.23931,7.95767 -3.26133,14.57819 -4.79417,19.76371c-3.52225,12.55615 -11.34946,21.65529 -20.80735,28.56933s-24.06868,11.41469 -40.01663,11.41469c-17.7743,0 -29.38467,-4.89201 -39.46221,-11.51253c-9.9797,-6.62052 -16.86112,-14.80648 -21.85097,-29.84126a102.27561,102.27561 0 0 1 -4.79417,-24.8514a566.36419,566.3968 0 0 1 -1.10886,-21.39438c-0.32613,-8.47948 -0.45659,-18.65486 -0.45659,-30.62398a861.02619,861.09142 0 0 1 0.45659,-30.59136a515.97649,516.00911 0 0 1 1.14147,-21.39438a104.03673,104.03673 0 0 1 4.82678,-24.78618a61.63931,61.63931 0 0 1 24.19914,-32.93953c11.219,-7.95767 19.33974,-11.47991 37.08142,-11.47991c16.5676,0 26.57991,3.13089 37.30972,9.88186c10.76242,6.75097 17.21987,16.04579 24.91664,30.16739c1.53283,3.06566 3.62008,3.84838 6.45746,2.28293l34.04838,-14.02376c2.44601,-1.56544 2.9352,-3.75054 1.36977,-6.49006a115.74494,115.74494 0 0 0 -15.19784,-24.19914a97.84018,97.84018 0 0 0 -22.1445,-19.79633a108.04817,108.04817 0 0 0 -29.4499,-13.37149a132.67128,132.67128 0 0 0 -37.2445,-4.82678l0.00002,0.00001zm-370.78167,190.33177c-55.11663,0 -99.01426,2.80476 -140.13975,2.80476c-37.37495,0 -74.71728,0 -98.06848,-0.94578l0,27.10173l35.48337,6.52268c24.26436,4.69632 38.28813,15.91534 38.28813,73.83672l0,368.13998c0,57.954 -14.02376,69.14039 -38.28813,73.80411l-35.48337,6.52268l0,27.13434c25.21015,-0.94578 69.14039,-2.80476 113.0054,-2.80476c42.07127,0 96.24212,1.85896 119.59331,2.80476l0,-27.10173l-48.59395,-6.52268c-25.21015,-3.75054 -38.28813,-15.88272 -38.28813,-73.83672l0,-156.02247c22.43801,1.85896 42.07127,1.85896 71.94515,1.85896c57.00821,101.85162 111.21167,178.46049 142.03133,213.94386c28.04752,33.65702 70.99936,55.14925 125.20282,55.14925c15.88272,0 32.71123,-2.80476 42.98445,-7.50108l0,-24.26436c-33.62441,0 -67.28143,-23.35119 -91.5784,-49.50713c-41.09287,-44.87603 -96.20951,-116.82118 -142.03133,-198.09375c75.66307,-17.7743 131.75811,-88.77366 131.75811,-159.80563c0,-104.62376 -81.27258,-153.21773 -187.78792,-153.21773l-0.03262,0zm-16.7959,42.07127c78.46782,0 125.20282,41.09287 125.20282,115.84277c0,73.80411 -50.45291,123.34385 -133.61707,123.34385c-31.76545,0 -45.78921,-0.9784 -67.28143,-2.80476l0,-234.4903c21.52484,-1.92419 50.45291,-1.92419 75.66307,-1.92419l0.03262,0.03262l-0.00001,0.00001z"/>
  </g>
 </g>

</svg>